{
  "asset": {
    "generator": "PolyBlob",
    "version": "2.0"
  },
  "scenes": [
    {
      "nodes": [
        0
      ]
    }
  ],
  "scene": 0,
  "nodes": [
    {
      "name": "car",
      "children": [
        1,
        2,
        3,
        4
      ]
    },
    {
      "name": "Tire",
      "mesh": 0,
      "translation": [
        2.0,
        0.0,
        1.0
      ]
    },
    {
      "name": "Tire",
      "mesh": 1,
      "translation": [
        -2.0,
        0.0,
        1.0
      ]
    },
    {
      "name": "Tire",
      "mesh": 2,
      "translation": [
        2.0,
        0.0,
        -1.0
      ]
    },
    {
      "name": "Tire",
      "mesh": 3,
      "translation": [
        -2.0,
        0.0,
        -1.0
      ]
    }
  ],
  "meshes": [
    {
      "name": "tire",
      "primitives": [
        {
          "attributes": {
            "POSITION": 1
          },
          "indices": 0,
          "material": 0
        },
        {
          "attributes": {
            "POSITION": 3
          },
          "indices": 2,
          "material": 1
        }
      ]
    },
    {
      "name": "tire",
      "primitives": [
        {
          "attributes": {
            "POSITION": 5
          },
          "indices": 4,
          "material": 2
        },
        {
          "attributes": {
            "POSITION": 7
          },
          "indices": 6,
          "material": 3
        }
      ]
    },
    {
      "name": "tire",
      "primitives": [
        {
          "attributes": {
            "POSITION": 9
          },
          "indices": 8,
          "material": 4
        },
        {
          "attributes": {
            "POSITION": 11
          },
          "indices": 10,
          "material": 5
        }
      ]
    },
    {
      "name": "tire",
      "primitives": [
        {
          "attributes": {
            "POSITION": 13
          },
          "indices": 12,
          "material": 6
        },
        {
          "attributes": {
            "POSITION": 15
          },
          "indices": 14,
          "material": 7
        }
      ]
    }
  ],
  "buffers": [
    {
      "uri": "data:application/octet-stream;base64,",
      "byteLength": 132
    },
    {
      "uri": "data:application/octet-stream;base64,",
      "byteLength": 396
    },
    {
      "uri": "data:application/octet-stream;base64,",
      "byteLength": 132
    },
    {
      "uri": "data:application/octet-stream;base64,",
      "byteLength": 396
    },
    {
      "uri": "data:application/octet-stream;base64,",
      "byteLength": 132
    },
    {
      "uri": "data:application/octet-stream;base64,",
      "byteLength": 396
    },
    {
      "uri": "data:application/octet-stream;base64,",
      "byteLength": 132
    },
    {
      "uri": "data:application/octet-stream;base64,",
      "byteLength": 396
    },
    {
      "uri": "data:application/octet-stream;base64,",
      "byteLength": 132
    },
    {
      "uri": "data:application/octet-stream;base64,",
      "byteLength": 396
    },
    {
      "uri": "data:application/octet-stream;base64,",
      "byteLength": 132
    },
    {
      "uri": "data:application/octet-stream;base64,",
      "byteLength": 396
    },
    {
      "uri": "data:application/octet-stream;base64,",
      "byteLength": 132
    },
    {
      "uri": "data:application/octet-stream;base64,",
      "byteLength": 396
    },
    {
      "uri": "data:application/octet-stream;base64,",
      "byteLength": 132
    },
    {
      "uri": "data:application/octet-stream;base64,",
      "byteLength": 396
    }
  ],
  "bufferViews": [
    {
      "buffer": 0,
      "byteOffset": 0,
      "byteLength": 132,
      "target": 34963
    },
    {
      "buffer": 1,
      "byteOffset": 0,
      "byteLength": 396,
      "target": 34962
    },
    {
      "buffer": 2,
      "byteOffset": 0,
      "byteLength": 132,
      "target": 34963
    },
    {
      "buffer": 3,
      "byteOffset": 0,
      "byteLength": 396,
      "target": 34962
    },
    {
      "buffer": 4,
      "byteOffset": 0,
      "byteLength": 132,
      "target": 34963
    },
    {
      "buffer": 5,
      "byteOffset": 0,
      "byteLength": 396,
      "target": 34962
    },
    {
      "buffer": 6,
      "byteOffset": 0,
      "byteLength": 132,
      "target": 34963
    },
    {
      "buffer": 7,
      "byteOffset": 0,
      "byteLength": 396,
      "target": 34962
    },
    {
      "buffer": 8,
      "byteOffset": 0,
      "byteLength": 132,
      "target": 34963
    },
    {
      "buffer": 9,
      "byteOffset": 0,
      "byteLength": 396,
      "target": 34962
    },
    {
      "buffer": 10,
      "byteOffset": 0,
      "byteLength": 132,
      "target": 34963
    },
    {
      "buffer": 11,
      "byteOffset": 0,
      "byteLength": 396,
      "target": 34962
    },
    {
      "buffer": 12,
      "byteOffset": 0,
      "byteLength": 132,
      "target": 34963
    },
    {
      "buffer": 13,
      "byteOffset": 0,
      "byteLength": 396,
      "target": 34962
    },
    {
      "buffer": 14,
      "byteOffset": 0,
      "byteLength": 132,
      "target": 34963
    },
    {
      "buffer": 15,
      "byteOffset": 0,
      "byteLength": 396,
      "target": 34962
    }
  ],
  "accessors": [
    {
      "bufferView": 0,
      "byteOffset": 0,
      "componentType": 5125,
      "count": 33,
      "type": "SCALAR",
      "max": [
        32.0
      ],
      "min": [
        0.0
      ]
    },
    {
      "bufferView": 1,
      "byteOffset": 0,
      "componentType": 5126,
      "count": 33,
      "type": "VEC3",
      "max": [
        1.1,
        1.08880365,
        0.0
      ],
      "min": [
        -1.05544233,
        -1.08880365,
        0.0
      ]
    },
    {
      "bufferView": 2,
      "byteOffset": 0,
      "componentType": 5125,
      "count": 33,
      "type": "SCALAR",
      "max": [
        32.0
      ],
      "min": [
        0.0
      ]
    },
    {
      "bufferView": 3,
      "byteOffset": 0,
      "componentType": 5126,
      "count": 33,
      "type": "VEC3",
      "max": [
        1.0,
        0.989821434,
        0.0
      ],
      "min": [
        -0.959493041,
        -0.9898215,
        0.0
      ]
    },
    {
      "bufferView": 4,
      "byteOffset": 0,
      "componentType": 5125,
      "count": 33,
      "type": "SCALAR",
      "max": [
        32.0
      ],
      "min": [
        0.0
      ]
    },
    {
      "bufferView": 5,
      "byteOffset": 0,
      "componentType": 5126,
      "count": 33,
      "type": "VEC3",
      "max": [
        1.1,
        1.08880365,
        0.0
      ],
      "min": [
        -1.05544233,
        -1.08880365,
        0.0
      ]
    },
    {
      "bufferView": 6,
      "byteOffset": 0,
      "componentType": 5125,
      "count": 33,
      "type": "SCALAR",
      "max": [
        32.0
      ],
      "min": [
        0.0
      ]
    },
    {
      "bufferView": 7,
      "byteOffset": 0,
      "componentType": 5126,
      "count": 33,
      "type": "VEC3",
      "max": [
        1.0,
        0.989821434,
        0.0
      ],
      "min": [
        -0.959493041,
        -0.9898215,
        0.0
      ]
    },
    {
      "bufferView": 8,
      "byteOffset": 0,
      "componentType": 5125,
      "count": 33,
      "type": "SCALAR",
      "max": [
        32.0
      ],
      "min": [
        0.0
      ]
    },
    {
      "bufferView": 9,
      "byteOffset": 0,
      "componentType": 5126,
      "count": 33,
      "type": "VEC3",
      "max": [
        1.1,
        1.08880365,
        0.0
      ],
      "min": [
        -1.05544233,
        -1.08880365,
        0.0
      ]
    },
    {
      "bufferView": 10,
      "byteOffset": 0,
      "componentType": 5125,
      "count": 33,
      "type": "SCALAR",
      "max": [
        32.0
      ],
      "min": [
        0.0
      ]
    },
    {
      "bufferView": 11,
      "byteOffset": 0,
      "componentType": 5126,
      "count": 33,
      "type": "VEC3",
      "max": [
        1.0,
        0.989821434,
        0.0
      ],
      "min": [
        -0.959493041,
        -0.9898215,
        0.0
      ]
    },
    {
      "bufferView": 12,
      "byteOffset": 0,
      "componentType": 5125,
      "count": 33,
      "type": "SCALAR",
      "max": [
        32.0
      ],
      "min": [
        0.0
      ]
    },
    {
      "bufferView": 13,
      "byteOffset": 0,
      "componentType": 5126,
      "count": 33,
      "type": "VEC3",
      "max": [
        1.1,
        1.08880365,
        0.0
      ],
      "min": [
        -1.05544233,
        -1.08880365,
        0.0
      ]
    },
    {
      "bufferView": 14,
      "byteOffset": 0,
      "componentType": 5125,
      "count": 33,
      "type": "SCALAR",
      "max": [
        32.0
      ],
      "min": [
        0.0
      ]
    },
    {
      "bufferView": 15,
      "byteOffset": 0,
      "componentType": 5126,
      "count": 33,
      "type": "VEC3",
      "max": [
        1.0,
        0.989821434,
        0.0
      ],
      "min": [
        -0.959493041,
        -0.9898215,
        0.0
      ]
    }
  ],
  "materials": [
    {
      "name": "rubber",
      "doubleSided": false,
      "pbrMetallicRoughness": {
        "baseColorFactor": [
          0.0392156877,
          0.0392156877,
          0.0392156877,
          1.0
        ],
        "metallicFactor": 0.03,
        "roughnessFactor": 0.83
      }
    },
    {
      "name": "metal",
      "doubleSided": false,
      "pbrMetallicRoughness": {
        "baseColorFactor": [
          0.9019608,
          0.9019608,
          0.9019608,
          1.0
        ],
        "metallicFactor": 0.8,
        "roughnessFactor": 0.4
      }
    },
    {
      "name": "rubber",
      "doubleSided": false,
      "pbrMetallicRoughness": {
        "baseColorFactor": [
          0.0392156877,
          0.0392156877,
          0.0392156877,
          1.0
        ],
        "metallicFactor": 0.03,
        "roughnessFactor": 0.83
      }
    },
    {
      "name": "metal",
      "doubleSided": false,
      "pbrMetallicRoughness": {
        "baseColorFactor": [
          0.9019608,
          0.9019608,
          0.9019608,
          1.0
        ],
        "metallicFactor": 0.8,
        "roughnessFactor": 0.4
      }
    },
    {
      "name": "rubber",
      "doubleSided": false,
      "pbrMetallicRoughness": {
        "baseColorFactor": [
          0.0392156877,
          0.0392156877,
          0.0392156877,
          1.0
        ],
        "metallicFactor": 0.03,
        "roughnessFactor": 0.83
      }
    },
    {
      "name": "metal",
      "doubleSided": false,
      "pbrMetallicRoughness": {
        "baseColorFactor": [
          0.9019608,
          0.9019608,
          0.9019608,
          1.0
        ],
        "metallicFactor": 0.8,
        "roughnessFactor": 0.4
      }
    },
    {
      "name": "rubber",
      "doubleSided": false,
      "pbrMetallicRoughness": {
        "baseColorFactor": [
          0.0392156877,
          0.0392156877,
          0.0392156877,
          1.0
        ],
        "metallicFactor": 0.03,
        "roughnessFactor": 0.83
      }
    },
    {
      "name": "metal",
      "doubleSided": false,
      "pbrMetallicRoughness": {
        "baseColorFactor": [
          0.9019608,
          0.9019608,
          0.9019608,
          1.0
        ],
        "metallicFactor": 0.8,
        "roughnessFactor": 0.4
      }
    }
  ]
}